<svg xmlns="http://www.w3.org/2000/svg" viewBox="0 0 369 68"><path d="M30.6 49.3c-1.3 1.7-3.3 3-5.8 3.9-2.5.9-5.4 1.3-8.6 1.3-2.5 0-4.7-.6-6.7-1.7-1.9-1.1-3.4-2.7-4.5-4.7s-1.7-4.4-1.9-7c-.2-2.4.1-5.3.8-8.6.7-3.3 1.9-6.2 3.5-8.7 1.7-2.5 3.7-4.3 6-5.6s4.9-1.8 7.8-1.8c3.9.1 6.9 1.2 9.1 3.3s3.4 5.1 3.7 9.1h-7.2c-.2-2.1-.7-3.6-1.7-4.6s-2.3-1.5-4.1-1.6c-3.1-.1-5.6 1.3-7.4 4.1s-2.8 7-3.1 12.4c-.2 2.9.3 5.1 1.3 6.7 1.1 1.6 2.7 2.4 4.8 2.4 2.5.1 4.7-.5 6.4-1.8l1.2-6.4h-6.8l1-5.6h14.1l-1.9 14.9zM42.7 54h-7.2l6.8-39h7.2l-6.8 39zm21.8-28c2.4 0 4.5.7 6.3 1.9s3 2.9 3.9 5c.8 2.1 1.1 4.5.9 7.1-.4 4.4-1.9 7.9-4.6 10.6-2.6 2.7-5.9 4-9.8 3.9-2.4 0-4.5-.6-6.2-1.8-1.7-1.2-3-2.8-3.9-5-.8-2.1-1.1-4.5-.9-7 .4-4.5 2-8.1 4.6-10.8s5.9-4 9.7-3.9zm-7.2 17.3c0 1.6.4 2.9 1.1 3.8.7.9 1.8 1.4 3.1 1.5 2.2.1 3.9-.9 5.2-3 1.3-2.1 1.8-4.8 1.8-8.2-.1-1.6-.5-2.9-1.2-3.9S65.6 32 64.2 32c-2.1-.1-3.8.9-5.1 3-1.3 2-1.9 4.8-1.8 8.3zm46.7-3c-.5 4.3-1.8 7.8-4 10.4s-4.9 3.9-8.3 3.8c-2.9-.1-5.1-1.2-6.6-3.5l-1 3h-6.5l6.8-39h7.2l-2.8 14c1.9-2.1 4.2-3.1 6.7-3 2.7 0 4.7 1 6.3 2.9 1.5 1.9 2.3 4.5 2.4 7.8 0 1-.1 2.2-.2 3.6zm-7.1-.5c.2-1.4.2-2.6.2-3.4-.2-3-1.4-4.5-3.7-4.5-2.1-.1-3.9.9-5.3 2.9l-2 11c.6 1.8 2 2.8 4.1 2.9 3.5.1 5.7-2.5 6.5-7.7l.2-1.2zM122.1 54c-.2-.7-.3-1.5-.3-2.5-2.1 2.1-4.4 3.1-7 3-2.4 0-4.4-.8-6-2.3-1.6-1.5-2.3-3.4-2.2-5.7.1-3 1.4-5.3 3.8-6.9 2.4-1.6 5.6-2.4 9.6-2.4l3.4.1.4-1.7c.1-.6.1-1.1.1-1.6-.1-.8-.4-1.4-.9-1.9-.5-.4-1.2-.7-2-.7-1.1 0-2.1.2-2.8.8-.8.6-1.3 1.4-1.5 2.5h-7.2c.1-2.6 1.3-4.8 3.6-6.4 2.3-1.6 5.1-2.4 8.5-2.4 3.1.1 5.6 1 7.3 2.8 1.8 1.8 2.5 4.1 2.2 6.9L129 48.8l-.1 1.6c0 1.2.1 2.2.4 3v.5h-7.2zm-5.5-5.1c2.1.1 3.9-.8 5.4-2.7l.9-4.7h-2.5c-2.6.1-4.5.9-5.7 2.4-.4.6-.7 1.2-.8 2.1-.1.9.1 1.6.6 2.2.5.5 1.2.7 2.1.7zm24.5 5.1h-7.2l6.8-39h7.2l-6.8 39zm39.7-9.9c.4-2-.6-3.6-3-4.6l-4.9-2c-5.7-2.5-8.4-6-8.1-10.5.1-2.1.8-3.9 2-5.5s3-2.8 5.2-3.7 4.6-1.3 7.2-1.3c3.6.1 6.5 1.1 8.7 3.2s3.3 4.8 3.2 8.3h-7.4c.1-1.7-.3-3-1.1-3.9-.8-.9-2.1-1.4-3.8-1.4-1.7 0-3.2.4-4.4 1.2-1.3.8-2 1.9-2.2 3.3-.3 1.8.9 3.3 3.7 4.4l3.4 1.3 1.9.9c5 2.5 7.3 5.9 7 10.4-.2 2.2-.9 4.1-2.1 5.6-1.2 1.6-2.9 2.8-5.1 3.6-2.1.8-4.5 1.2-7.1 1.2-2.6-.1-5-.6-7-1.7-2-1-3.6-2.5-4.7-4.4-1-1.8-1.5-3.8-1.4-6.1h7.4c-.2 4 1.7 6.1 5.9 6.1 1.8 0 3.3-.4 4.5-1.2s1.9-1.9 2.2-3.2zm24.9-24.3l-1.2 6.8h4.6l-.9 5.4h-4.6l-2.3 13.8c-.1.9 0 1.5.2 2s.8.7 1.7.7c.3 0 1 0 2.2-.1l-.5 5.6c-1.3.4-2.6.6-4.1.6-2.4 0-4.1-.8-5.3-2.2s-1.6-3.4-1.4-5.8l2.4-14.5h-3.9l.9-5.4h3.9l1.2-6.8h7.1zM224.4 54c-.2-.7-.3-1.5-.3-2.5-2.1 2.1-4.4 3.1-7 3-2.4 0-4.4-.8-6-2.3s-2.3-3.4-2.2-5.7c.1-3 1.4-5.3 3.8-6.9s5.6-2.4 9.6-2.4l3.4.1.4-1.7c.1-.6.1-1.1.1-1.6-.1-.8-.4-1.4-.9-1.9s-1.2-.7-2-.7c-1.1 0-2.1.2-2.8.8s-1.3 1.4-1.5 2.5h-7.2c.1-2.6 1.3-4.8 3.6-6.4s5.1-2.4 8.5-2.4c3.1.1 5.6 1 7.3 2.8s2.5 4.1 2.2 6.9l-2.1 13.2-.1 1.6c0 1.2.1 2.2.4 3v.5h-7.2zm-5.5-5.1c2.1.1 3.9-.8 5.4-2.7l.9-4.7h-2.5c-2.6.1-4.5.9-5.7 2.4-.4.6-.7 1.2-.8 2.1-.1.9.1 1.6.6 2.2s1.2.7 2.1.7zm28.2-22.4l-.6 3.2c2.2-2.6 4.9-3.8 8-3.7 2.6.1 4.5 1 5.7 2.8s1.7 4.4 1.3 7.7L258.7 54h-7.2l2.9-17.5c.1-.7.1-1.3.1-1.8-.2-1.7-1.3-2.6-3.2-2.7-1.9-.1-3.6.8-5.1 2.6L242.8 54h-7.2l4.8-27.5h6.7zm30.8-.5c2.6.1 4.6 1.1 6.2 3.1l2.7-14.1h7.2l-6.8 39h-6.4l.4-2.9c-2 2.4-4.4 3.5-7.2 3.5-1.7 0-3.2-.5-4.5-1.3s-2.3-2.1-3-3.8-1.1-3.5-1.2-5.5c-.1-1.1 0-2.1.1-3.1l.2-1.1c.4-2.8 1.2-5.3 2.3-7.4s2.6-3.7 4.3-4.7 3.7-1.8 5.7-1.7zm-5.2 14.8c-.1 1.3-.2 2.4-.1 3.2.2 3 1.4 4.5 3.6 4.5 2 .1 3.8-.9 5.3-2.8l2-10.9c-.7-1.8-2-2.8-4-2.8-1.7-.1-3.2.6-4.4 2-1.1 1.4-1.9 3.6-2.4 6.8zM308.9 54c-.2-.7-.3-1.5-.3-2.5-2.1 2.1-4.4 3.1-7 3-2.4 0-4.4-.8-6-2.3s-2.3-3.4-2.2-5.7c.1-3 1.4-5.3 3.8-6.9s5.6-2.4 9.6-2.4l3.4.1.4-1.7c.1-.6.1-1.1.1-1.6-.1-.8-.4-1.4-.9-1.9s-1.2-.7-2-.7c-1.1 0-2.1.2-2.8.8s-1.3 1.4-1.5 2.5h-7.2c.1-2.6 1.3-4.8 3.6-6.4s5.1-2.4 8.5-2.4c3.1.1 5.6 1 7.3 2.8s2.5 4.1 2.2 6.9l-2.1 13.2-.1 1.6c0 1.2.1 2.2.4 3v.5h-7.2zm-5.5-5.1c2.1.1 3.9-.8 5.4-2.7l.9-4.7h-2.5c-2.6.1-4.5.9-5.7 2.4-.4.6-.7 1.2-.8 2.1-.1.9.1 1.6.6 2.2s1.2.7 2.1.7zm35.7-15.5c-1-.2-1.8-.3-2.4-.3-2.6-.1-4.6.9-6.1 2.9l-3.2 18h-7.2l4.8-27.5h6.7l-.7 3.4c1.7-2.6 3.9-3.9 6.4-3.9.7 0 1.5.1 2.5.4l-.8 7zm13.5-7.4c2.6.1 4.6 1.1 6.2 3.1l2.7-14.1h7.2l-6.8 39h-6.4l.4-2.9c-2 2.4-4.4 3.5-7.2 3.5-1.7 0-3.2-.5-4.5-1.3s-2.3-2.1-3-3.8-1.1-3.5-1.2-5.5c-.1-1.1 0-2.1.1-3.1l.2-1.1c.4-2.8 1.2-5.3 2.3-7.4s2.6-3.7 4.3-4.7 3.6-1.8 5.7-1.7zm-5.2 14.8c-.1 1.3-.2 2.4-.1 3.2.2 3 1.4 4.5 3.6 4.5 2 .1 3.8-.9 5.3-2.8l2-10.9c-.7-1.8-2-2.8-4-2.8-1.7-.1-3.2.6-4.4 2-1.2 1.4-2 3.6-2.4 6.8z" fill="#fff"/></svg>