<svg xmlns="http://www.w3.org/2000/svg" viewBox="0 0 284 53"><path d="M23.2 38.4c-1 1.3-2.5 2.3-4.5 3-2 .7-4.2 1-6.6 1-1.9 0-3.6-.4-5.1-1.3-1.5-.8-2.6-2-3.5-3.6-.8-1.6-1.3-3.4-1.4-5.4-.1-1.9.1-4.1.6-6.6s1.4-4.8 2.7-6.7c1.3-1.9 2.8-3.3 4.6-4.3s3.8-1.4 6-1.4c3 .1 5.3.9 7 2.5s2.6 3.9 2.9 7h-5.5c-.1-1.6-.6-2.8-1.3-3.5s-1.8-1.2-3.1-1.2c-2.4-.1-4.3 1-5.7 3.2S8 26.4 7.8 30.6c-.1 2.2.2 4 1 5.2.8 1.2 2.1 1.8 3.7 1.9 1.9.1 3.6-.4 5-1.4l1-4.9h-5.2l.8-4.3H25l-1.8 11.3zm9.3 3.6H27l5.2-30h5.5l-5.2 30zm16.8-21.5c1.9 0 3.5.5 4.8 1.4s2.3 2.2 3 3.8c.6 1.6.9 3.4.7 5.4-.3 3.4-1.5 6.1-3.5 8.2-2 2.1-4.6 3.1-7.5 3-1.8 0-3.4-.5-4.8-1.4-1.3-.9-2.3-2.2-3-3.8-.6-1.6-.9-3.4-.7-5.4.3-3.5 1.5-6.3 3.6-8.3s4.4-3 7.4-2.9zm-5.6 13.3c0 1.2.3 2.2.9 3 .6.7 1.3 1.1 2.4 1.1 1.7.1 3-.7 4-2.3 1-1.6 1.4-3.7 1.3-6.3-.1-1.2-.4-2.2-.9-3-.6-.9-1.4-1.2-2.4-1.3-1.6-.1-3 .7-3.9 2.3-1 1.6-1.5 3.8-1.4 6.5zm35.9-2.3c-.4 3.3-1.4 6-3 8s-3.8 3-6.4 2.9c-2.2-.1-3.9-1-5.1-2.7l-.8 2.3h-5l5.2-30H70l-2.1 10.8c1.5-1.6 3.2-2.4 5.2-2.3 2 0 3.6.8 4.8 2.2 1.2 1.4 1.8 3.4 1.9 6 0 .7-.1 1.7-.2 2.8zm-5.5-.4c.1-1.1.2-2 .1-2.6-.1-2.3-1.1-3.4-2.8-3.5-1.6-.1-3 .7-4 2.2l-1.5 8.4c.5 1.4 1.5 2.1 3.2 2.2 2.7.1 4.4-1.9 5-5.9v-.8zM93.6 42c-.2-.5-.2-1.2-.2-1.9-1.6 1.6-3.4 2.4-5.4 2.3-1.8 0-3.4-.6-4.6-1.8-1.2-1.2-1.8-2.6-1.7-4.4.1-2.3 1.1-4.1 2.9-5.3 1.8-1.2 4.3-1.8 7.4-1.8h2.6l.3-1.3c.1-.4.1-.8.1-1.2-.1-.6-.3-1.1-.7-1.4-.4-.3-.9-.5-1.6-.5-.9 0-1.6.2-2.2.6-.6.4-1 1.1-1.2 1.9h-5.5c.1-2 1-3.7 2.8-4.9 1.8-1.3 3.9-1.9 6.5-1.8 2.4.1 4.3.8 5.6 2.1 1.4 1.4 1.9 3.1 1.7 5.3L98.8 38l-.1 1.2c0 .9.1 1.7.3 2.3v.4h-5.4zm-4.3-3.9c1.6.1 3-.6 4.2-2.1l.7-3.7h-1.9c-2 .1-3.5.7-4.4 1.9-.3.4-.5 1-.6 1.6-.1.7 0 1.3.4 1.7.4.4.9.6 1.6.6zm18.8 3.9h-5.5l5.2-30h5.5l-5.2 30zm30.6-7.6c.3-1.5-.5-2.7-2.3-3.6l-3.8-1.5c-4.4-2-6.5-4.6-6.2-8.1.1-1.6.6-3 1.6-4.2 1-1.2 2.3-2.2 4-2.9s3.6-1 5.6-1c2.7.1 5 .9 6.7 2.5 1.7 1.6 2.5 3.7 2.5 6.4H141c.1-1.3-.2-2.3-.8-3-.6-.7-1.6-1.1-2.9-1.1-1.3 0-2.4.3-3.4.9-1 .6-1.5 1.5-1.7 2.5-.2 1.4.7 2.5 2.9 3.4l2.6 1 1.5.7c3.8 1.9 5.6 4.6 5.4 8-.1 1.7-.7 3.1-1.6 4.3s-2.3 2.2-3.9 2.8c-1.6.7-3.5 1-5.4.9-2 0-3.8-.5-5.4-1.3-1.6-.8-2.8-1.9-3.6-3.4-.8-1.4-1.1-2.9-1.1-4.7h5.7c-.2 3.1 1.3 4.7 4.6 4.7 1.4 0 2.5-.3 3.4-.9s1.2-1.4 1.4-2.4zm19.2-18.7l-.9 5.2h3.5l-.7 4.1h-3.5l-1.8 10.6c-.1.7 0 1.2.2 1.5.2.4.6.5 1.3.6.2 0 .8 0 1.7-.1l-.4 4.3c-1 .3-2 .5-3.2.4-1.8 0-3.2-.6-4-1.7-.9-1.1-1.2-2.6-1.1-4.5l1.8-11.2h-3l.7-4.1h3l.9-5.2h5.5zM172.2 42c-.2-.5-.2-1.2-.2-1.9-1.6 1.6-3.4 2.4-5.4 2.3-1.8 0-3.4-.6-4.6-1.8-1.2-1.2-1.8-2.6-1.7-4.4.1-2.3 1.1-4.1 2.9-5.3 1.8-1.2 4.3-1.8 7.4-1.8h2.6l.3-1.3c.1-.4.1-.8.1-1.2-.1-.6-.3-1.1-.7-1.4-.4-.3-.9-.5-1.6-.5-.9 0-1.6.2-2.2.6-.6.4-1 1.1-1.2 1.9h-5.5c.1-2 1-3.7 2.8-4.9 1.8-1.3 3.9-1.9 6.5-1.8 2.4.1 4.3.8 5.6 2.1 1.4 1.4 1.9 3.1 1.7 5.3L177.4 38l-.1 1.2c0 .9.1 1.7.3 2.3v.4h-5.4zm-4.2-3.9c1.6.1 3-.6 4.2-2.1l.7-3.7H171c-2 .1-3.5.7-4.4 1.9-.3.4-.5 1-.6 1.6-.1.7 0 1.3.4 1.7.4.4.9.6 1.6.6zm21.7-17.3l-.5 2.5c1.7-2 3.7-2.9 6.2-2.9 2 0 3.5.8 4.4 2.2 1 1.4 1.3 3.4 1 5.9L198.6 42h-5.5l2.3-13.5c.1-.5.1-1 0-1.4-.2-1.3-1-2-2.5-2.1-1.4-.1-2.7.6-3.9 2l-2.6 15h-5.5l3.7-21.1 5.1-.1zm23.7-.3c2 .1 3.6.8 4.8 2.4l2.1-10.8h5.5l-5.2 30h-4.9l.3-2.3c-1.6 1.8-3.4 2.7-5.5 2.7-1.3 0-2.5-.4-3.5-1-1-.7-1.8-1.7-2.3-2.9-.5-1.3-.8-2.7-.9-4.2 0-.8 0-1.6.1-2.4l.1-.9c.3-2.2.9-4.1 1.8-5.7.9-1.6 2-2.9 3.3-3.7 1.3-.9 2.7-1.3 4.3-1.2zm-4 11.3c-.1 1-.1 1.8-.1 2.5.1 2.3 1.1 3.5 2.8 3.5 1.5.1 2.9-.7 4-2.2l1.5-8.4c-.5-1.4-1.5-2.1-3-2.2-1.3 0-2.5.5-3.3 1.6-.9 1.1-1.5 2.8-1.9 5.2zM237.2 42c-.2-.5-.2-1.2-.2-1.9-1.6 1.6-3.4 2.4-5.4 2.3-1.8 0-3.4-.6-4.6-1.8-1.2-1.2-1.8-2.6-1.7-4.4.1-2.3 1.1-4.1 2.9-5.3 1.8-1.2 4.3-1.8 7.4-1.8h2.6l.3-1.3c.1-.4.1-.8.1-1.2-.1-.6-.3-1.1-.7-1.4-.4-.3-.9-.5-1.6-.5-.9 0-1.6.2-2.2.6-.6.4-1 1.1-1.2 1.9h-5.5c.1-2 1-3.7 2.8-4.9 1.8-1.3 3.9-1.9 6.5-1.8 2.4.1 4.3.8 5.6 2.1 1.4 1.4 1.9 3.1 1.7 5.3L242.4 38l-.1 1.2c0 .9.1 1.7.3 2.3v.4h-5.4zm-4.2-3.9c1.6.1 3-.6 4.2-2.1l.7-3.7H236c-2 .1-3.5.7-4.4 1.9-.3.4-.5 1-.6 1.6-.1.7 0 1.3.4 1.7.4.4.9.6 1.6.6zm27.5-11.9c-.8-.1-1.4-.2-1.9-.2-2-.1-3.5.7-4.7 2.2L251.5 42H246l3.7-21.1h5.2l-.5 2.6c1.3-2 3-3 4.9-3 .5 0 1.2.1 1.9.3l-.7 5.4zm10.3-5.7c2 .1 3.6.8 4.8 2.4l2.1-10.8h5.5L278 42h-4.9l.3-2.3c-1.6 1.8-3.4 2.7-5.5 2.7-1.3 0-2.5-.4-3.5-1-1-.7-1.8-1.7-2.3-2.9-.5-1.3-.8-2.7-.9-4.2 0-.8 0-1.6.1-2.4l.1-.9c.3-2.2.9-4.1 1.8-5.7.9-1.6 2-2.9 3.3-3.7 1.3-.8 2.8-1.2 4.3-1.1zm-4 11.3c-.1 1-.1 1.8-.1 2.5.1 2.3 1.1 3.5 2.8 3.5 1.5.1 2.9-.7 4-2.2l1.5-8.4c-.5-1.4-1.5-2.1-3-2.2-1.3 0-2.5.5-3.3 1.6-.9 1.1-1.5 2.8-1.9 5.2z" fill="#023e78"/></svg>