<svg xmlns="http://www.w3.org/2000/svg" width="28.8" height="23.391"><path data-name="Icon awesome-twitter" d="M25.84 5.829c.018.256.018.512.018.768 0 7.8-5.939 16.794-16.794 16.794A16.68 16.68 0 010 20.741a12.211 12.211 0 001.425.073 11.821 11.821 0 007.328-2.522 5.913 5.913 0 01-5.519-4.093 7.443 7.443 0 001.115.091 6.243 6.243 0 001.553-.2 5.9 5.9 0 01-4.733-5.793v-.078a5.944 5.944 0 002.668.749 5.911 5.911 0 01-1.827-7.89 16.778 16.778 0 0012.171 6.177 6.663 6.663 0 01-.146-1.352A5.908 5.908 0 0124.25 1.864 11.621 11.621 0 0028 .438a5.887 5.887 0 01-2.6 3.253 11.833 11.833 0 003.4-.914 12.688 12.688 0 01-2.96 3.052z" fill="#1a1a1a"/></svg>