<?xml version="1.0" encoding="utf-8"?>
<!-- Generator: Adobe Illustrator 26.0.3, SVG Export Plug-In . SVG Version: 6.00 Build 0)  -->
<svg version="1.1" id="レイヤー_1" xmlns="http://www.w3.org/2000/svg" xmlns:xlink="http://www.w3.org/1999/xlink" x="0px"
	 y="0px" viewBox="0 0 284 53" style="enable-background:new 0 0 284 53;" xml:space="preserve">
<style type="text/css">
	.st0{enable-background:new    ;}
	.st1{fill:#023E78;}
</style>
<g class="st0">
	<path class="st1" d="M23.2,38.4c-1,1.3-2.5,2.3-4.5,3c-2,0.7-4.2,1-6.6,1c-1.9,0-3.6-0.4-5.1-1.3c-1.5-0.8-2.6-2-3.5-3.6
		c-0.8-1.6-1.3-3.4-1.4-5.4c-0.1-1.9,0.1-4.1,0.6-6.6c0.5-2.5,1.4-4.8,2.7-6.7c1.3-1.9,2.8-3.3,4.6-4.3s3.8-1.4,6-1.4
		c3,0.1,5.3,0.9,7,2.5s2.6,3.9,2.9,7l-5.5,0c-0.1-1.6-0.6-2.8-1.3-3.5s-1.8-1.2-3.1-1.2c-2.4-0.1-4.3,1-5.7,3.2S8,26.4,7.8,30.6
		c-0.1,2.2,0.2,4,1,5.2c0.8,1.2,2.1,1.8,3.7,1.9c1.9,0.1,3.6-0.4,5-1.4l1-4.9h-5.2l0.8-4.3h10.9L23.2,38.4z"/>
	<path class="st1" d="M32.5,42H27l5.2-30h5.5L32.5,42z"/>
	<path class="st1" d="M49.3,20.5c1.9,0,3.5,0.5,4.8,1.4s2.3,2.2,3,3.8c0.6,1.6,0.9,3.4,0.7,5.4c-0.3,3.4-1.5,6.1-3.5,8.2
		c-2,2.1-4.6,3.1-7.5,3c-1.8,0-3.4-0.5-4.8-1.4c-1.3-0.9-2.3-2.2-3-3.8c-0.6-1.6-0.9-3.4-0.7-5.4c0.3-3.5,1.5-6.3,3.6-8.3
		S46.3,20.4,49.3,20.5z M43.7,33.8c0,1.2,0.3,2.2,0.9,3c0.6,0.7,1.3,1.1,2.4,1.1c1.7,0.1,3-0.7,4-2.3c1-1.6,1.4-3.7,1.3-6.3
		c-0.1-1.2-0.4-2.2-0.9-3C50.8,25.4,50,25.1,49,25c-1.6-0.1-3,0.7-3.9,2.3C44.1,28.9,43.6,31.1,43.7,33.8z"/>
	<path class="st1" d="M79.6,31.5c-0.4,3.3-1.4,6-3,8s-3.8,3-6.4,2.9c-2.2-0.1-3.9-1-5.1-2.7L64.3,42h-5l5.2-30H70l-2.1,10.8
		c1.5-1.6,3.2-2.4,5.2-2.3c2,0,3.6,0.8,4.8,2.2c1.2,1.4,1.8,3.4,1.9,6C79.8,29.4,79.7,30.4,79.6,31.5z M74.1,31.1
		c0.1-1.1,0.2-2,0.1-2.6c-0.1-2.3-1.1-3.4-2.8-3.5c-1.6-0.1-3,0.7-4,2.2l-1.5,8.4c0.5,1.4,1.5,2.1,3.2,2.2c2.7,0.1,4.4-1.9,5-5.9
		L74.1,31.1z"/>
	<path class="st1" d="M93.6,42c-0.2-0.5-0.2-1.2-0.2-1.9c-1.6,1.6-3.4,2.4-5.4,2.3c-1.8,0-3.4-0.6-4.6-1.8c-1.2-1.2-1.8-2.6-1.7-4.4
		c0.1-2.3,1.1-4.1,2.9-5.3c1.8-1.2,4.3-1.8,7.4-1.8l2.6,0l0.3-1.3c0.1-0.4,0.1-0.8,0.1-1.2c-0.1-0.6-0.3-1.1-0.7-1.4
		c-0.4-0.3-0.9-0.5-1.6-0.5c-0.9,0-1.6,0.2-2.2,0.6c-0.6,0.4-1,1.1-1.2,1.9l-5.5,0c0.1-2,1-3.7,2.8-4.9c1.8-1.3,3.9-1.9,6.5-1.8
		c2.4,0.1,4.3,0.8,5.6,2.1c1.4,1.4,1.9,3.1,1.7,5.3L98.8,38l-0.1,1.2c0,0.9,0.1,1.7,0.3,2.3l0,0.4H93.6z M89.3,38.1
		c1.6,0.1,3-0.6,4.2-2.1l0.7-3.7l-1.9,0c-2,0.1-3.5,0.7-4.4,1.9c-0.3,0.4-0.5,1-0.6,1.6c-0.1,0.7,0,1.3,0.4,1.7
		C88.1,37.9,88.6,38.1,89.3,38.1z"/>
	<path class="st1" d="M108.1,42h-5.5l5.2-30h5.5L108.1,42z"/>
	<path class="st1" d="M138.7,34.4c0.3-1.5-0.5-2.7-2.3-3.6l-3.8-1.5c-4.4-2-6.5-4.6-6.2-8.1c0.1-1.6,0.6-3,1.6-4.2
		c1-1.2,2.3-2.2,4-2.9s3.6-1,5.6-1c2.7,0.1,5,0.9,6.7,2.5c1.7,1.6,2.5,3.7,2.5,6.4H141c0.1-1.3-0.2-2.3-0.8-3
		c-0.6-0.7-1.6-1.1-2.9-1.1c-1.3,0-2.4,0.3-3.4,0.9c-1,0.6-1.5,1.5-1.7,2.5c-0.2,1.4,0.7,2.5,2.9,3.4l2.6,1l1.5,0.7
		c3.8,1.9,5.6,4.6,5.4,8c-0.1,1.7-0.7,3.1-1.6,4.3s-2.3,2.2-3.9,2.8c-1.6,0.7-3.5,1-5.4,0.9c-2,0-3.8-0.5-5.4-1.3
		c-1.6-0.8-2.8-1.9-3.6-3.4c-0.8-1.4-1.1-2.9-1.1-4.7l5.7,0c-0.2,3.1,1.3,4.7,4.6,4.7c1.4,0,2.5-0.3,3.4-0.9S138.5,35.4,138.7,34.4z
		"/>
	<path class="st1" d="M157.9,15.7l-0.9,5.2h3.5l-0.7,4.1h-3.5l-1.8,10.6c-0.1,0.7,0,1.2,0.2,1.5c0.2,0.4,0.6,0.5,1.3,0.6
		c0.2,0,0.8,0,1.7-0.1l-0.4,4.3c-1,0.3-2,0.5-3.2,0.4c-1.8,0-3.2-0.6-4-1.7c-0.9-1.1-1.2-2.6-1.1-4.5l1.8-11.2h-3l0.7-4.1h3l0.9-5.2
		H157.9z"/>
	<path class="st1" d="M172.2,42c-0.2-0.5-0.2-1.2-0.2-1.9c-1.6,1.6-3.4,2.4-5.4,2.3c-1.8,0-3.4-0.6-4.6-1.8
		c-1.2-1.2-1.8-2.6-1.7-4.4c0.1-2.3,1.1-4.1,2.9-5.3c1.8-1.2,4.3-1.8,7.4-1.8l2.6,0l0.3-1.3c0.1-0.4,0.1-0.8,0.1-1.2
		c-0.1-0.6-0.3-1.1-0.7-1.4c-0.4-0.3-0.9-0.5-1.6-0.5c-0.9,0-1.6,0.2-2.2,0.6c-0.6,0.4-1,1.1-1.2,1.9l-5.5,0c0.1-2,1-3.7,2.8-4.9
		c1.8-1.3,3.9-1.9,6.5-1.8c2.4,0.1,4.3,0.8,5.6,2.1c1.4,1.4,1.9,3.1,1.7,5.3L177.4,38l-0.1,1.2c0,0.9,0.1,1.7,0.3,2.3l0,0.4H172.2z
		 M168,38.1c1.6,0.1,3-0.6,4.2-2.1l0.7-3.7l-1.9,0c-2,0.1-3.5,0.7-4.4,1.9c-0.3,0.4-0.5,1-0.6,1.6c-0.1,0.7,0,1.3,0.4,1.7
		C166.8,37.9,167.3,38.1,168,38.1z"/>
	<path class="st1" d="M189.7,20.8l-0.5,2.5c1.7-2,3.7-2.9,6.2-2.9c2,0,3.5,0.8,4.4,2.2c1,1.4,1.3,3.4,1,5.9L198.6,42h-5.5l2.3-13.5
		c0.1-0.5,0.1-1,0-1.4c-0.2-1.3-1-2-2.5-2.1c-1.4-0.1-2.7,0.6-3.9,2L186.4,42h-5.5l3.7-21.1L189.7,20.8z"/>
	<path class="st1" d="M213.4,20.5c2,0.1,3.6,0.8,4.8,2.4l2.1-10.8h5.5l-5.2,30h-4.9l0.3-2.3c-1.6,1.8-3.4,2.7-5.5,2.7
		c-1.3,0-2.5-0.4-3.5-1c-1-0.7-1.8-1.7-2.3-2.9c-0.5-1.3-0.8-2.7-0.9-4.2c0-0.8,0-1.6,0.1-2.4l0.1-0.9c0.3-2.2,0.9-4.1,1.8-5.7
		c0.9-1.6,2-2.9,3.3-3.7C210.4,20.8,211.8,20.4,213.4,20.5z M209.4,31.8c-0.1,1-0.1,1.8-0.1,2.5c0.1,2.3,1.1,3.5,2.8,3.5
		c1.5,0.1,2.9-0.7,4-2.2l1.5-8.4c-0.5-1.4-1.5-2.1-3-2.2c-1.3,0-2.5,0.5-3.3,1.6C210.4,27.7,209.8,29.4,209.4,31.8z"/>
	<path class="st1" d="M237.2,42c-0.2-0.5-0.2-1.2-0.2-1.9c-1.6,1.6-3.4,2.4-5.4,2.3c-1.8,0-3.4-0.6-4.6-1.8
		c-1.2-1.2-1.8-2.6-1.7-4.4c0.1-2.3,1.1-4.1,2.9-5.3c1.8-1.2,4.3-1.8,7.4-1.8l2.6,0l0.3-1.3c0.1-0.4,0.1-0.8,0.1-1.2
		c-0.1-0.6-0.3-1.1-0.7-1.4c-0.4-0.3-0.9-0.5-1.6-0.5c-0.9,0-1.6,0.2-2.2,0.6c-0.6,0.4-1,1.1-1.2,1.9l-5.5,0c0.1-2,1-3.7,2.8-4.9
		c1.8-1.3,3.9-1.9,6.5-1.8c2.4,0.1,4.3,0.8,5.6,2.1c1.4,1.4,1.9,3.1,1.7,5.3L242.4,38l-0.1,1.2c0,0.9,0.1,1.7,0.3,2.3l0,0.4H237.2z
		 M233,38.1c1.6,0.1,3-0.6,4.2-2.1l0.7-3.7l-1.9,0c-2,0.1-3.5,0.7-4.4,1.9c-0.3,0.4-0.5,1-0.6,1.6c-0.1,0.7,0,1.3,0.4,1.7
		C231.8,37.9,232.3,38.1,233,38.1z"/>
	<path class="st1" d="M260.5,26.2c-0.8-0.1-1.4-0.2-1.9-0.2c-2-0.1-3.5,0.7-4.7,2.2L251.5,42H246l3.7-21.1l5.2,0l-0.5,2.6
		c1.3-2,3-3,4.9-3c0.5,0,1.2,0.1,1.9,0.3L260.5,26.2z"/>
	<path class="st1" d="M270.8,20.5c2,0.1,3.6,0.8,4.8,2.4l2.1-10.8h5.5L278,42h-4.9l0.3-2.3c-1.6,1.8-3.4,2.7-5.5,2.7
		c-1.3,0-2.5-0.4-3.5-1c-1-0.7-1.8-1.7-2.3-2.9c-0.5-1.3-0.8-2.7-0.9-4.2c0-0.8,0-1.6,0.1-2.4l0.1-0.9c0.3-2.2,0.9-4.1,1.8-5.7
		c0.9-1.6,2-2.9,3.3-3.7C267.8,20.8,269.3,20.4,270.8,20.5z M266.8,31.8c-0.1,1-0.1,1.8-0.1,2.5c0.1,2.3,1.1,3.5,2.8,3.5
		c1.5,0.1,2.9-0.7,4-2.2l1.5-8.4c-0.5-1.4-1.5-2.1-3-2.2c-1.3,0-2.5,0.5-3.3,1.6C267.8,27.7,267.2,29.4,266.8,31.8z"/>
</g>
</svg>
