<?xml version="1.0" encoding="utf-8"?>
<!-- Generator: Adobe Illustrator 26.0.3, SVG Export Plug-In . SVG Version: 6.00 Build 0)  -->
<svg version="1.1" id="レイヤー_1" xmlns="http://www.w3.org/2000/svg" xmlns:xlink="http://www.w3.org/1999/xlink" x="0px"
	 y="0px" viewBox="0 0 369 68" style="enable-background:new 0 0 369 68;" xml:space="preserve">
<style type="text/css">
	.st0{enable-background:new    ;}
	.st1{fill:#FFFFFF;}
</style>
<g class="st0">
	<path class="st1" d="M30.6,49.3c-1.3,1.7-3.3,3-5.8,3.9c-2.5,0.9-5.4,1.3-8.6,1.3c-2.5,0-4.7-0.6-6.7-1.7c-1.9-1.1-3.4-2.7-4.5-4.7
		c-1.1-2-1.7-4.4-1.9-7c-0.2-2.4,0.1-5.3,0.8-8.6c0.7-3.3,1.9-6.2,3.5-8.7c1.7-2.5,3.7-4.3,6-5.6s4.9-1.8,7.8-1.8
		c3.9,0.1,6.9,1.2,9.1,3.3s3.4,5.1,3.7,9.1l-7.2,0c-0.2-2.1-0.7-3.6-1.7-4.6s-2.3-1.5-4.1-1.6c-3.1-0.1-5.6,1.3-7.4,4.1
		s-2.8,7-3.1,12.4c-0.2,2.9,0.3,5.1,1.3,6.7c1.1,1.6,2.7,2.4,4.8,2.4c2.5,0.1,4.7-0.5,6.4-1.8l1.2-6.4h-6.8l1-5.6h14.1L30.6,49.3z"
		/>
	<path class="st1" d="M42.7,54h-7.2l6.8-39h7.2L42.7,54z"/>
	<path class="st1" d="M64.5,26c2.4,0,4.5,0.7,6.3,1.9s3,2.9,3.9,5c0.8,2.1,1.1,4.5,0.9,7.1c-0.4,4.4-1.9,7.9-4.6,10.6
		c-2.6,2.7-5.9,4-9.8,3.9c-2.4,0-4.5-0.6-6.2-1.8c-1.7-1.2-3-2.8-3.9-5c-0.8-2.1-1.1-4.5-0.9-7c0.4-4.5,2-8.1,4.6-10.8
		S60.7,25.9,64.5,26z M57.3,43.3c0,1.6,0.4,2.9,1.1,3.8c0.7,0.9,1.8,1.4,3.1,1.5c2.2,0.1,3.9-0.9,5.2-3c1.3-2.1,1.8-4.8,1.8-8.2
		c-0.1-1.6-0.5-2.9-1.2-3.9c-0.7-1-1.7-1.5-3.1-1.5c-2.1-0.1-3.8,0.9-5.1,3C57.8,37,57.2,39.8,57.3,43.3z"/>
	<path class="st1" d="M104,40.3c-0.5,4.3-1.8,7.8-4,10.4s-4.9,3.9-8.3,3.8c-2.9-0.1-5.1-1.2-6.6-3.5l-1,3h-6.5l6.8-39h7.2l-2.8,14
		c1.9-2.1,4.2-3.1,6.7-3c2.7,0,4.7,1,6.3,2.9c1.5,1.9,2.3,4.5,2.4,7.8C104.2,37.7,104.1,38.9,104,40.3z M96.9,39.8
		c0.2-1.4,0.2-2.6,0.2-3.4c-0.2-3-1.4-4.5-3.7-4.5c-2.1-0.1-3.9,0.9-5.3,2.9l-2,11c0.6,1.8,2,2.8,4.1,2.9c3.5,0.1,5.7-2.5,6.5-7.7
		L96.9,39.8z"/>
	<path class="st1" d="M122.1,54c-0.2-0.7-0.3-1.5-0.3-2.5c-2.1,2.1-4.4,3.1-7,3c-2.4,0-4.4-0.8-6-2.3c-1.6-1.5-2.3-3.4-2.2-5.7
		c0.1-3,1.4-5.3,3.8-6.9c2.4-1.6,5.6-2.4,9.6-2.4l3.4,0.1l0.4-1.7c0.1-0.6,0.1-1.1,0.1-1.6c-0.1-0.8-0.4-1.4-0.9-1.9
		c-0.5-0.4-1.2-0.7-2-0.7c-1.1,0-2.1,0.2-2.8,0.8c-0.8,0.6-1.3,1.4-1.5,2.5l-7.2,0c0.1-2.6,1.3-4.8,3.6-6.4c2.3-1.6,5.1-2.4,8.5-2.4
		c3.1,0.1,5.6,1,7.3,2.8c1.8,1.8,2.5,4.1,2.2,6.9l-2.1,13.2l-0.1,1.6c0,1.2,0.1,2.2,0.4,3l0,0.5H122.1z M116.6,48.9
		c2.1,0.1,3.9-0.8,5.4-2.7l0.9-4.7l-2.5,0c-2.6,0.1-4.5,0.9-5.7,2.4c-0.4,0.6-0.7,1.2-0.8,2.1c-0.1,0.9,0.1,1.6,0.6,2.2
		C115,48.7,115.7,48.9,116.6,48.9z"/>
	<path class="st1" d="M141.1,54h-7.2l6.8-39h7.2L141.1,54z"/>
	<path class="st1" d="M180.8,44.1c0.4-2-0.6-3.6-3-4.6l-4.9-2c-5.7-2.5-8.4-6-8.1-10.5c0.1-2.1,0.8-3.9,2-5.5c1.2-1.6,3-2.8,5.2-3.7
		s4.6-1.3,7.2-1.3c3.6,0.1,6.5,1.1,8.7,3.2s3.3,4.8,3.2,8.3h-7.4c0.1-1.7-0.3-3-1.1-3.9c-0.8-0.9-2.1-1.4-3.8-1.4
		c-1.7,0-3.2,0.4-4.4,1.2c-1.3,0.8-2,1.9-2.2,3.3c-0.3,1.8,0.9,3.3,3.7,4.4l3.4,1.3l1.9,0.9c5,2.5,7.3,5.9,7,10.4
		c-0.2,2.2-0.9,4.1-2.1,5.6c-1.2,1.6-2.9,2.8-5.1,3.6c-2.1,0.8-4.5,1.2-7.1,1.2c-2.6-0.1-5-0.6-7-1.7c-2-1-3.6-2.5-4.7-4.4
		c-1-1.8-1.5-3.8-1.4-6.1l7.4,0c-0.2,4,1.7,6.1,5.9,6.1c1.8,0,3.3-0.4,4.5-1.2S180.5,45.4,180.8,44.1z"/>
	<path class="st1" d="M205.7,19.8l-1.2,6.8h4.6l-0.9,5.4h-4.6l-2.3,13.8c-0.1,0.9,0,1.5,0.2,2s0.8,0.7,1.7,0.7c0.3,0,1,0,2.2-0.1
		l-0.5,5.6c-1.3,0.4-2.6,0.6-4.1,0.6c-2.4,0-4.1-0.8-5.3-2.2s-1.6-3.4-1.4-5.8l2.4-14.5h-3.9l0.9-5.4h3.9l1.2-6.8H205.7z"/>
	<path class="st1" d="M224.4,54c-0.2-0.7-0.3-1.5-0.3-2.5c-2.1,2.1-4.4,3.1-7,3c-2.4,0-4.4-0.8-6-2.3s-2.3-3.4-2.2-5.7
		c0.1-3,1.4-5.3,3.8-6.9s5.6-2.4,9.6-2.4l3.4,0.1l0.4-1.7c0.1-0.6,0.1-1.1,0.1-1.6c-0.1-0.8-0.4-1.4-0.9-1.9s-1.2-0.7-2-0.7
		c-1.1,0-2.1,0.2-2.8,0.8s-1.3,1.4-1.5,2.5l-7.2,0c0.1-2.6,1.3-4.8,3.6-6.4s5.1-2.4,8.5-2.4c3.1,0.1,5.6,1,7.3,2.8s2.5,4.1,2.2,6.9
		l-2.1,13.2l-0.1,1.6c0,1.2,0.1,2.2,0.4,3l0,0.5H224.4z M218.9,48.9c2.1,0.1,3.9-0.8,5.4-2.7l0.9-4.7l-2.5,0
		c-2.6,0.1-4.5,0.9-5.7,2.4c-0.4,0.6-0.7,1.2-0.8,2.1c-0.1,0.9,0.1,1.6,0.6,2.2S218,48.9,218.9,48.9z"/>
	<path class="st1" d="M247.1,26.5l-0.6,3.2c2.2-2.6,4.9-3.8,8-3.7c2.6,0.1,4.5,1,5.7,2.8s1.7,4.4,1.3,7.7L258.7,54h-7.2l2.9-17.5
		c0.1-0.7,0.1-1.3,0.1-1.8c-0.2-1.7-1.3-2.6-3.2-2.7c-1.9-0.1-3.6,0.8-5.1,2.6L242.8,54h-7.2l4.8-27.5L247.1,26.5z"/>
	<path class="st1" d="M277.9,26c2.6,0.1,4.6,1.1,6.2,3.1l2.7-14.1h7.2l-6.8,39h-6.4l0.4-2.9c-2,2.4-4.4,3.5-7.2,3.5
		c-1.7,0-3.2-0.5-4.5-1.3s-2.3-2.1-3-3.8s-1.1-3.5-1.2-5.5c-0.1-1.1,0-2.1,0.1-3.1l0.2-1.1c0.4-2.8,1.2-5.3,2.3-7.4s2.6-3.7,4.3-4.7
		S275.9,25.9,277.9,26z M272.7,40.8c-0.1,1.3-0.2,2.4-0.1,3.2c0.2,3,1.4,4.5,3.6,4.5c2,0.1,3.8-0.9,5.3-2.8l2-10.9
		c-0.7-1.8-2-2.8-4-2.8c-1.7-0.1-3.2,0.6-4.4,2C274,35.4,273.2,37.6,272.7,40.8z"/>
	<path class="st1" d="M308.9,54c-0.2-0.7-0.3-1.5-0.3-2.5c-2.1,2.1-4.4,3.1-7,3c-2.4,0-4.4-0.8-6-2.3s-2.3-3.4-2.2-5.7
		c0.1-3,1.4-5.3,3.8-6.9s5.6-2.4,9.6-2.4l3.4,0.1l0.4-1.7c0.1-0.6,0.1-1.1,0.1-1.6c-0.1-0.8-0.4-1.4-0.9-1.9s-1.2-0.7-2-0.7
		c-1.1,0-2.1,0.2-2.8,0.8s-1.3,1.4-1.5,2.5l-7.2,0c0.1-2.6,1.3-4.8,3.6-6.4s5.1-2.4,8.5-2.4c3.1,0.1,5.6,1,7.3,2.8s2.5,4.1,2.2,6.9
		l-2.1,13.2l-0.1,1.6c0,1.2,0.1,2.2,0.4,3l0,0.5H308.9z M303.4,48.9c2.1,0.1,3.9-0.8,5.4-2.7l0.9-4.7l-2.5,0
		c-2.6,0.1-4.5,0.9-5.7,2.4c-0.4,0.6-0.7,1.2-0.8,2.1c-0.1,0.9,0.1,1.6,0.6,2.2S302.5,48.9,303.4,48.9z"/>
	<path class="st1" d="M339.1,33.4c-1-0.2-1.8-0.3-2.4-0.3c-2.6-0.1-4.6,0.9-6.1,2.9l-3.2,18h-7.2l4.8-27.5l6.7,0l-0.7,3.4
		c1.7-2.6,3.9-3.9,6.4-3.9c0.7,0,1.5,0.1,2.5,0.4L339.1,33.4z"/>
	<path class="st1" d="M352.6,26c2.6,0.1,4.6,1.1,6.2,3.1l2.7-14.1h7.2l-6.8,39h-6.4l0.4-2.9c-2,2.4-4.4,3.5-7.2,3.5
		c-1.7,0-3.2-0.5-4.5-1.3s-2.3-2.1-3-3.8s-1.1-3.5-1.2-5.5c-0.1-1.1,0-2.1,0.1-3.1l0.2-1.1c0.4-2.8,1.2-5.3,2.3-7.4s2.6-3.7,4.3-4.7
		S350.5,25.9,352.6,26z M347.4,40.8c-0.1,1.3-0.2,2.4-0.1,3.2c0.2,3,1.4,4.5,3.6,4.5c2,0.1,3.8-0.9,5.3-2.8l2-10.9
		c-0.7-1.8-2-2.8-4-2.8c-1.7-0.1-3.2,0.6-4.4,2C348.6,35.4,347.8,37.6,347.4,40.8z"/>
</g>
</svg>
