<svg xmlns="http://www.w3.org/2000/svg" width="28.8" height="23.391" viewBox="0 0 28.8 23.391">
  <path id="Icon_awesome-twitter" data-name="Icon awesome-twitter" d="M25.84,9.21c.018.256.018.512.018.768,0,7.8-5.939,16.794-16.794,16.794A16.68,16.68,0,0,1,0,24.122a12.211,12.211,0,0,0,1.425.073,11.821,11.821,0,0,0,7.328-2.522A5.913,5.913,0,0,1,3.234,17.58a7.443,7.443,0,0,0,1.115.091,6.243,6.243,0,0,0,1.553-.2,5.9,5.9,0,0,1-4.733-5.793V11.6a5.944,5.944,0,0,0,2.668.749A5.911,5.911,0,0,1,2.01,4.459a16.778,16.778,0,0,0,12.171,6.177,6.663,6.663,0,0,1-.146-1.352A5.908,5.908,0,0,1,24.25,5.245,11.621,11.621,0,0,0,28,3.819,5.887,5.887,0,0,1,25.4,7.072a11.833,11.833,0,0,0,3.4-.914A12.688,12.688,0,0,1,25.84,9.21Z" transform="translate(0 -3.381)" fill="#1a1a1a"/>
</svg>
